# xmcd CD database file
#
# Track frame offsets:
#	150
#	13417
#	28561
#	51084
#	58738
#	83919
#	106182
#	117514
#	129809
#	145090
#	167417
#	187935
#	229707
#
# Disc length: 3611 seconds
#
# Revision: 1
# Processed by: cddbd v1.5.2PL0 Copyright (c) Steve Scherf et al.
# Submitted via: CDex 1.51
#
DISCID=a20e190d
DTITLE=Fred Thelonious Baker - Missing Link
DYEAR=1900
DGENRE=Jazz
TTITLE0=Toccata in D min
TTITLE1=Bonneville Blues
TTITLE2=Homage to Pastorius
TTITLE3=Popcorn
TTITLE4=Space Bass
TTITLE5=Bassically Speakin "The Groove"
TTITLE6=For Christine
TTITLE7=Blue Monk/
TTITLE8=Round Midnight
TTITLE9=Celebration
TTITLE10=Hen Hoedown "chickin pickin good"
TTITLE11=Loggerheads excerpt
TTITLE12=The Damage Factor
EXTD=
EXTT0=
EXTT1=
EXTT2=
EXTT3=
EXTT4=
EXTT5=
EXTT6=
EXTT7=
EXTT8=
EXTT9=
EXTT10=
EXTT11=
EXTT12=
PLAYORDER=
